<svg xmlns="http://www.w3.org/2000/svg" xml:space="preserve" style="enable-background:new 0 0 60 60" viewBox="0 0 60 60"><path d="M60 60H0V0h60v60zM4 55.9h51.9V4H4v51.9z"/><path d="M47.8 48H12V12.2C23.9 24.1 35.8 36.1 47.8 48zM47.9 34.8l-2.6 2.6c-1.2-1.1-2.3-2.2-3.5-3.3-.9-.9-1.9-1.8-2.8-2.7L35.6 28l-3.3-3.3-3.4-3.4-3.4-3.4-2.7-2.7c-.1-.1-.1-.4 0-.5l2.4-2.4c.1-.1.3-.1.4 0 .8.7 1.5 1.5 2.3 2.2l2.9 2.9 2.2 2.2c1.5 1.5 3.1 3 4.7 4.6 1.9 1.9 3.8 3.9 5.8 5.9 1.4 1.5 2.9 3.1 4.4 4.7zM47.9 23.4c-.7.8-1.6 1.7-2.4 2.5-.1.1-.5.1-.6 0-2.1-2.1-4.2-4.1-6.2-6.2l-4.4-4.4c-.4-.4-.4-.6 0-.9.7-.7 1.4-1.5 2.2-2.2.1-.1.3-.1.4 0 .6.5 1.2 1.1 1.8 1.7 1 1 1.9 2 2.9 2.9.8.9 1.7 1.7 2.6 2.6 1.2 1.3 2.4 2.6 3.7 4z"/></svg>