<?xml version="1.0" encoding="UTF-8" standalone="no"?>
<!-- Created with Inkscape (http://www.inkscape.org/) -->

<svg
   xmlns:dc="http://purl.org/dc/elements/1.1/"
   xmlns:cc="http://creativecommons.org/ns#"
   xmlns:rdf="http://www.w3.org/1999/02/22-rdf-syntax-ns#"
   xmlns:svg="http://www.w3.org/2000/svg"
   xmlns="http://www.w3.org/2000/svg"
   xmlns:sodipodi="http://sodipodi.sourceforge.net/DTD/sodipodi-0.dtd"
   xmlns:inkscape="http://www.inkscape.org/namespaces/inkscape"
   width="744.09448819"
   height="1052.3622047"
   id="svg3851"
   version="1.1"
   inkscape:version="0.48.5 r10040"
   sodipodi:docname="New document 7">
  <defs
     id="defs3853" />
  <sodipodi:namedview
     id="base"
     pagecolor="#ffffff"
     bordercolor="#666666"
     borderopacity="1.0"
     inkscape:pageopacity="0.0"
     inkscape:pageshadow="2"
     inkscape:zoom="0.35"
     inkscape:cx="375"
     inkscape:cy="520"
     inkscape:document-units="px"
     inkscape:current-layer="layer1"
     showgrid="false"
     inkscape:window-width="460"
     inkscape:window-height="418"
     inkscape:window-x="2"
     inkscape:window-y="46"
     inkscape:window-maximized="0" />
  <metadata
     id="metadata3856">
    <rdf:RDF>
      <cc:Work
         rdf:about="">
        <dc:format>image/svg+xml</dc:format>
        <dc:type
           rdf:resource="http://purl.org/dc/dcmitype/StillImage" />
        <dc:title></dc:title>
      </cc:Work>
    </rdf:RDF>
  </metadata>
  <g
     inkscape:label="Layer 1"
     inkscape:groupmode="layer"
     id="layer1">
    <g
       id="g3058"
       transform="matrix(0.18427751,0,0,0.18427751,329.85201,484.67287)"
       style="stroke-width:2.71329904;stroke-miterlimit:4;stroke-dasharray:none"
       inkscape:export-filename="/home/wosc/Downloads/patch.png"
       inkscape:export-xdpi="254"
       inkscape:export-ydpi="254">
      <rect
         style="fill:#ff9955;stroke:#000000;stroke-width:2.71329904;stroke-miterlimit:4;stroke-dasharray:none"
         id="rect3046"
         width="98.571426"
         height="38.57143"
         x="-132.06656"
         y="327.33365"
         transform="matrix(-0.8660254,0.5,0.5,0.8660254,0,0)" />
      <rect
         transform="matrix(0.8660254,0.5,-0.5,0.8660254,0,0)"
         y="82.333656"
         x="292.28589"
         height="38.57143"
         width="98.571426"
         id="rect2987"
         style="fill:#ff9955;stroke:#000000;stroke-width:2.71329904;stroke-miterlimit:4;stroke-dasharray:none" />
      <path
         transform="matrix(0.8660254,0.5,-0.5,0.8660254,386.96778,-363.69895)"
         d="m 183.92857,603.79077 c 0,1.38071 -1.11928,2.5 -2.5,2.5 -1.38071,0 -2.5,-1.11929 -2.5,-2.5 0,-1.38071 1.11929,-2.5 2.5,-2.5 1.38072,0 2.5,1.11929 2.5,2.5 z"
         sodipodi:ry="2.4999998"
         sodipodi:rx="2.4999998"
         sodipodi:cy="603.79077"
         sodipodi:cx="181.42857"
         id="path3050"
         style="fill:#ffffff;stroke:#000000;stroke-width:2.71329904;stroke-miterlimit:4;stroke-dasharray:none"
         sodipodi:type="arc" />
      <path
         sodipodi:type="arc"
         style="fill:#ffffff;stroke:#000000;stroke-width:2.71329904;stroke-miterlimit:4;stroke-dasharray:none"
         id="path3052"
         sodipodi:cx="181.42857"
         sodipodi:cy="603.79077"
         sodipodi:rx="2.4999998"
         sodipodi:ry="2.4999998"
         d="m 183.92857,603.79077 c 0,1.38071 -1.11928,2.5 -2.5,2.5 -1.38071,0 -2.5,-1.11929 -2.5,-2.5 0,-1.38071 1.11929,-2.5 2.5,-2.5 1.38072,0 2.5,1.11929 2.5,2.5 z"
         transform="matrix(0.8660254,0.5,-0.5,0.8660254,396.86521,-357.98466)" />
      <path
         sodipodi:type="arc"
         style="fill:#ffffff;stroke:#000000;stroke-width:2.71329904;stroke-miterlimit:4;stroke-dasharray:none"
         id="path3054"
         sodipodi:cx="181.42857"
         sodipodi:cy="603.79077"
         sodipodi:rx="2.4999998"
         sodipodi:ry="2.4999998"
         d="m 183.92857,603.79077 c 0,1.38071 -1.11928,2.5 -2.5,2.5 -1.38071,0 -2.5,-1.11929 -2.5,-2.5 0,-1.38071 1.11929,-2.5 2.5,-2.5 1.38072,0 2.5,1.11929 2.5,2.5 z"
         transform="matrix(0.8660254,0.5,-0.5,0.8660254,381.25349,-353.80151)" />
      <path
         transform="matrix(0.8660254,0.5,-0.5,0.8660254,391.15092,-348.08723)"
         d="m 183.92857,603.79077 c 0,1.38071 -1.11928,2.5 -2.5,2.5 -1.38071,0 -2.5,-1.11929 -2.5,-2.5 0,-1.38071 1.11929,-2.5 2.5,-2.5 1.38072,0 2.5,1.11929 2.5,2.5 z"
         sodipodi:ry="2.4999998"
         sodipodi:rx="2.4999998"
         sodipodi:cy="603.79077"
         sodipodi:cx="181.42857"
         id="path3056"
         style="fill:#ffffff;stroke:#000000;stroke-width:2.71329904;stroke-miterlimit:4;stroke-dasharray:none"
         sodipodi:type="arc" />
    </g>
  </g>
</svg>
